<svg version="1.1" xmlns="http://www.w3.org/2000/svg" viewBox="-266.2 -1075.2 5123.4 3602.85"><desc>Created with Snap</desc><defs></defs><g><g transform="matrix(7.0076,0,0,7.0076,366.6376,-733.811)"><g><path d="M475.333,165.763c-19.725-19.73-54.636-4.045-67.785,16.188c0,0,54.891-4.04,54.891,50.584   C485.705,209.264,499.861,190.303,475.333,165.763z" fill="#cbce91" style=""></path><path d="M433.951,199.876L274.509,353.437l17.458,12.079l4.18,18.214l-10.258,10.934l-16.692,5.562l-24.285-24.279l3.044-13.155   l169.2-169.194c-5.348-1.123-11.425-1.782-18.463-1.782L239.853,350.653l-16.418,60.508c-0.98-0.744-2.144-1.262-3.469-1.262   c-0.01,0-0.021,0-0.029,0c-101.314,0.347-131.092-21.085-132.733-33.911c-1.591-12.417,19.068-30.634,68.816-43.338   c26.601-6.792,38.243-14.374,37.751-24.587c-1.138-23.567-87.586-39.473-124.7-45.217c-3.218-0.483-6.17,1.692-6.665,4.876   c-0.492,3.189,1.69,6.17,4.876,6.664c59.593,9.223,114.322,25.542,114.826,34.229c-0.01,0.056-1.479,5.701-28.977,12.719   c-51.36,13.118-80.333,34.102-77.509,56.139c3.548,27.688,56.202,44.107,141.09,44.107c1.088,0,2.185-0.003,3.281-0.008   c0.231,0,0.429-0.107,0.651-0.137l-0.009,0.035l0.871-0.211c0.272-0.078,0.564-0.087,0.819-0.2l69.13-16.784l160.863-160.865   C452.321,243.411,458.005,214.38,433.951,199.876z" fill="#cbce91" style=""></path></g><desc>Created with Snap</desc><defs></defs></g><g><g transform="matrix(1,0,0,-1,0,0)"><path d="M505 -16L521 -57Q476 -56 427 -28Q378 0 335 42Q293 85 259 128Q226 172 202 214L123 223Q125 150 131 -4Q122 -35 96 -35Q78 -35 61 -21Q45 -6 41 15Q44 99 47 342Q51 585 57 718L102 730Q102 698 103 694Q160 732 263 732Q374 732 429 662Q484 593 484 468Q484 422 473 379Q462 337 440 300Q419 263 381 239Q343 215 294 211Q329 138 388 69Q447 0 505 -16ZM112 627L120 315Q175 285 247 285Q316 285 364 337Q412 389 412 464Q412 545 362 610Q312 675 237 675Q176 675 112 627ZM975 97L985 53Q941 37 854 17Q768 -2 726 -2Q683 -2 651 26Q619 55 603 99Q587 144 579 187Q572 231 572 273Q572 523 798 523Q852 523 893 488Q934 454 934 399Q934 369 917 346Q901 323 877 309Q854 296 817 285Q781 274 753 269Q725 264 686 258Q647 252 632 249Q633 220 635 198Q638 176 645 150Q653 125 665 108Q678 92 700 81Q722 70 752 70Q788 70 840 76Q892 83 932 90Q973 97 975 97ZM636 311Q772 350 859 393Q852 426 840 441Q828 456 804 456Q743 456 693 414Q644 372 636 311ZM1297 514L1364 505Q1345 426 1304 264Q1263 103 1240 2Q1201 -5 1172 -5Q1148 -5 1127 -1Q1112 51 1079 163Q1047 276 1024 359Q1002 442 984 518L1050 513L1180 97Q1196 145 1214 205Q1232 265 1243 307Q1254 350 1272 418Q1290 487 1297 514ZM1426 514L1472 504Q1480 422 1486 246Q1492 71 1494 29Q1485 -2 1459 -2Q1441 -2 1424 12Q1408 27 1404 48Q1406 89 1412 261Q1418 434 1426 514ZM1440 693Q1467 693 1485 669Q1503 646 1503 616Q1503 594 1492 580Q1482 567 1464 567Q1436 567 1420 590Q1404 613 1404 644Q1404 666 1413 679Q1423 693 1440 693ZM1988 97L1998 53Q1954 37 1867 17Q1781 -2 1739 -2Q1696 -2 1664 26Q1632 55 1616 99Q1600 144 1592 187Q1585 231 1585 273Q1585 523 1811 523Q1865 523 1906 488Q1947 454 1947 399Q1947 369 1930 346Q1914 323 1890 309Q1867 296 1830 285Q1794 274 1766 269Q1738 264 1699 258Q1660 252 1645 249Q1646 220 1648 198Q1651 176 1658 150Q1666 125 1678 108Q1691 92 1713 81Q1735 70 1765 70Q1801 70 1853 76Q1905 83 1945 90Q1986 97 1988 97ZM1649 311Q1785 350 1872 393Q1865 426 1853 441Q1841 456 1817 456Q1756 456 1706 414Q1657 372 1649 311ZM2527 518L2594 509Q2575 430 2534 268Q2493 107 2470 6Q2431 -1 2403 -1Q2378 -1 2357 3L2301 199L2253 2Q2214 -5 2185 -5Q2161 -5 2140 -1Q2125 51 2092 163Q2060 276 2037 359Q2015 442 1997 518L2063 513L2193 97Q2226 193 2262 334Q2231 449 2214 522L2280 517L2410 101Q2426 149 2444 209Q2462 269 2473 311Q2484 354 2502 422Q2520 491 2527 518ZM2907 57L2921 113Q3008 66 3092 66Q3152 66 3194 90Q3237 115 3237 170Q3237 219 3201 259Q3165 300 3114 331Q3063 362 3012 394Q2961 427 2925 474Q2889 522 2889 580Q2889 651 2940 709Q2991 768 3063 768Q3118 768 3185 746Q3253 724 3299 702L3287 662Q3173 701 3095 701Q3047 701 3013 670Q2979 639 2979 590Q2979 553 2998 523Q3017 493 3047 471Q3078 449 3115 428Q3153 407 3190 383Q3227 359 3257 331Q3288 303 3307 260Q3326 218 3326 165Q3326 90 3278 42Q3230 -5 3153 -5Q3087 -5 3012 13Q2938 32 2907 57ZM3413 432L3393 483Q3419 509 3459 524Q3499 540 3538 540Q3707 540 3707 248Q3707 208 3702 130Q3698 52 3698 13Q3690 -18 3667 -18Q3649 -18 3634 0Q3619 18 3619 40Q3619 47 3620 50Q3558 -10 3488 -10Q3435 -10 3395 28Q3356 67 3356 122Q3356 215 3428 290Q3501 365 3593 365Q3597 365 3601 364Q3605 364 3610 363Q3616 362 3619 362Q3611 479 3526 479Q3476 479 3413 432ZM3622 119Q3624 189 3624 225Q3624 255 3622 309L3614 309Q3543 308 3484 256Q3426 204 3426 130Q3426 98 3445 79Q3465 60 3493 60Q3537 60 3622 119ZM4125 496L4120 453Q4078 459 4048 459Q3979 459 3934 417Q3889 376 3872 319Q3856 263 3856 194Q3856 162 3860 137Q3864 112 3874 88Q3885 64 3907 50Q3930 37 3963 37Q4007 37 4075 54Q4096 62 4108 62Q4132 62 4137 6Q4049 -22 3974 -22Q3865 -22 3826 31Q3788 85 3788 205Q3788 275 3797 327Q3807 380 3831 425Q3855 471 3900 495Q3946 519 4012 519Q4086 519 4125 496ZM4193 720L4245 708Q4248 667 4249 577Q4251 487 4253 453Q4307 510 4383 510Q4451 510 4500 462Q4550 414 4550 334L4550 5Q4537 -1 4517 -1Q4495 -1 4477 3Q4477 11 4477 27Q4478 44 4478 52Q4478 91 4475 186Q4472 282 4472 346Q4457 438 4379 438Q4345 438 4312 419Q4279 401 4264 376Q4267 313 4268 186Q4269 59 4271 3Q4247 -1 4230 -1Q4205 -1 4188 5Q4190 54 4190 160Q4190 207 4189 332Q4188 458 4188 548Q4189 639 4193 720Z" fill="#76528b" style=""></path></g></g></g></svg>